# xmcd
#
# Track frame offsets:
#	150
#	2439
#	17067
#	29589
#	33523
#	45161
#	49156
#	51392
#	62813
#	75730
#	78335
#	93723
#	97999
#	100205
#	112322
#	123494
#	126164
#	139157
#	145049
#	147266
#	157938
#	174192
#	176333
#	187750
#
# Disc length: 2754 seconds
#
# Revision: 1
# Processed by: cddbd v1.5.2PL0 Copyright (c) Steve Scherf et al.
# Submitted via: EZCDAudioConverter 4.0.5.1
#
DISCID=3b0ac018
DTITLE=Hank Williams - The Garden Spot Programs - 1950
DYEAR=2014
DGENRE=Country
TTITLE0=The Garden Spot Jingle (Garden Spot Show #4) (mono)
TTITLE1=Lovesick Blues (Garden Spot Show #4) (mono)
TTITLE2=A Mansion On The Hill (Garden Spot Show #4) (mono)
TTITLE3=Fiddle Tune (Garden Spot Show #4) (mono)
TTITLE4=I've Just Told Mama Goodbye (Garden Spot Show #4) (mono)
TTITLE5=Closing - Oh! Susanna (Garden Spot Show #4) (mono)
TTITLE6=The Garden Spot Jingle (Garden Spot Show #9) (mono)
TTITLE7=Mind Your Own Business (Garden Spot Show #9) (mono)
TTITLE8=Lovesick Blues (Garden Spot Show #9) (mono)
TTITLE9=Fiddle Tune (Garden Spot Show #9) (mono)
TTITLE10=At The First Fall Of Snow (Garden Spot Show #9) (mono)
TTITLE11=Closing - Oh! Susanna (Garden Spot Show #9) (mono)
TTITLE12=The Garden Spot Jingle (Garden Spot Show #10) (mono)
TTITLE13=I Can't Get You Off Of My Mind (Garden Spot Show #10) (mono)
TTITLE14=I Don't Care (If Tomorrow Never Comes) (Garden Spot Show #10) (mono)
TTITLE15=Fiddle Tune (Garden Spot Show #10) (mono)
TTITLE16=Farther Along (Garden Spot Show #10) (mono)
TTITLE17=Closing - Oh! Susanna (Garden Spot Show #10) (mono)
TTITLE18=The Garden Spot Jingle (Garden Spot Show #11) (mono)
TTITLE19=I'll Be A Bachelor 'Til I Die (Garden Spot Show #11) (mono)
TTITLE20=Wedding Bells (Garden Spot Show #11) (mono)
TTITLE21=Fiddle Tune (Garden Spot Show #11) (mono)
TTITLE22=Jesus Remembered Me (Garden Spot Show #11) (mono)
TTITLE23=Closing - Oh! Susanna (Garden Spot Show #11) (mono)
EXTD=
EXTT0=
EXTT1=
EXTT2=
EXTT3=
EXTT4=
EXTT5=
EXTT6=
EXTT7=
EXTT8=
EXTT9=
EXTT10=
EXTT11=
EXTT12=
EXTT13=
EXTT14=
EXTT15=
EXTT16=
EXTT17=
EXTT18=
EXTT19=
EXTT20=
EXTT21=
EXTT22=
EXTT23=
PLAYORDER=
